<svg width="24" height="24" viewBox="0 0 24 24" fill="none" xmlns="http://www.w3.org/2000/svg">
<path fill-rule="evenodd" clip-rule="evenodd" d="M12 17C6.66667 17 4 12 4 12C4 12 6.66667 7 12 7C17.3333 7 20 12 20 12C20 12 17.3333 17 12 17ZM5.16308 12.6791C5.16308 12.6791 5.16354 12.6783 5.16445 12.6766L5.16386 12.6776L5.16312 12.679L5.16308 12.6791ZM6.89195 10.5324C6.32683 11.0622 5.89645 11.5937 5.60393 12C5.89645 12.4063 6.32683 12.9378 6.89195 13.4676C8.06618 14.5685 9.76225 15.6111 12 15.6111C14.2378 15.6111 15.9338 14.5685 17.108 13.4676C17.6732 12.9378 18.1036 12.4063 18.3961 12C18.1036 11.5937 17.6732 11.0622 17.108 10.5324C15.9338 9.43152 14.2378 8.38889 12 8.38889C9.76225 8.38889 8.06618 9.43152 6.89195 10.5324ZM5.16386 11.3224L5.16445 11.3234C5.16338 11.3215 5.16294 11.3206 5.16312 11.321L5.16386 11.3224ZM18.8361 11.3224L18.8369 11.321C18.8371 11.3206 18.8366 11.3215 18.8356 11.3234L18.8361 11.3224ZM18.8361 12.6776L18.8356 12.6766C18.8363 12.6779 18.8367 12.6787 18.8369 12.679L18.8361 12.6776ZM14.6667 12C14.6667 13.5341 13.4728 14.7777 12 14.7777C10.5272 14.7777 9.33333 13.5341 9.33333 12C9.33333 10.4658 10.5272 9.22218 12 9.22218C13.4728 9.22218 14.6667 10.4658 14.6667 12ZM13.0667 11.9989C13.0667 12.6126 12.5891 13.1101 12 13.1101C11.4109 13.1101 10.9333 12.6126 10.9333 11.9989C10.9333 11.3853 11.4109 10.8878 12 10.8878C12.5891 10.8878 13.0667 11.3853 13.0667 11.9989Z" fill="#1D1C1A" fill-opacity="0.64"/>
</svg>
