<svg xmlns="http://www.w3.org/2000/svg" width="16" height="16" viewBox="0 0 16 16">
    <g fill="none" fill-rule="evenodd">
        <path d="M0 0h16v16H0z"/>
        <path fill="#979797" fill-rule="nonzero" d="M12.425 6.072h-.553V3.68C11.872 1.65 10.135 0 8 0S4.128 1.651 4.128 3.68v2.392h-.552C2.706 6.072 2 6.744 2 7.57v6.933C2 15.328 2.707 16 3.576 16h8.848c.87 0 1.576-.672 1.576-1.497V7.57c0-.826-.707-1.498-1.575-1.498zM5.058 3.68C5.058 2.138 6.378.883 8 .883c1.623 0 2.943 1.255 2.943 2.797v2.392H5.058V3.68zm8.013 10.822c0 .339-.29.615-.647.615H3.576c-.357 0-.647-.276-.647-.615V7.57c0-.339.29-.615.647-.615h8.848c.357 0 .647.276.647.615v6.932z"/>
    </g>
</svg>
