<svg width="40" height="40" viewBox="0 0 40 40" fill="none" xmlns="http://www.w3.org/2000/svg">
<path d="M17.5 23.022H22.5C22.5 20.9368 27.5 19.5467 27.5 15.044C27.5 11.1154 23.9375 9 20.375 9C16.9062 9 13.875 10.7527 12.5 13.8654L16.8125 16.2527C17.4375 14.8324 18.4687 13.7143 20.1875 13.7143C21.7812 13.7143 22.5 14.4093 22.5 15.467C22.5 18.1264 17.5 19.4863 17.5 23.022ZM20 31C21.625 31 22.9687 29.7006 22.9687 28.1291C22.9687 26.5577 21.625 25.2582 20 25.2582C18.375 25.2582 17.0312 26.5577 17.0312 28.1291C17.0312 29.7006 18.375 31 20 31Z" fill="black"/>
</svg>
