<svg xmlns="http://www.w3.org/2000/svg" width="16" height="16">
  <path fill="#1976D2" d="M8 16c-3.314 0-6-2.48-6-5.538C2 9.387 2.657 7.8 3.818 5.77c.287-.502.602-1.024.939-1.56A64.619 64.619 0 0 1 7.45.266a.7.7 0 0 1 1.098 0l.233.318a64.62 64.62 0 0 1 2.46 3.627c.338.535.653 1.057.94 1.559C13.343 7.8 14 9.387 14 10.462 14 13.52 11.314 16 8 16zm.542-1a4.291 4.291 0 0 0 4.291-4.291c0-.802-.554-2.254-1.53-4.102a41.35 41.35 0 0 0-.84-1.51A63.82 63.82 0 0 0 8.544 2c-.082.123-.025 13 0 13z"/>
</svg>
