<svg xmlns="http://www.w3.org/2000/svg" width="16" height="16" viewBox="0 0 16 16">
    <g fill="#5D5D5D" fill-rule="evenodd">
        <path d="M8 0c-.554 0-1.003.451-1.003 1.005v2.143c0 .551.45 1.002 1.003 1.002.554 0 1.003-.45 1.003-1.002V1.005C9.003.451 8.554 0 8 0z"/>
        <path d="M8 11.85c-.554 0-1.003.45-1.003 1.005v2.142C6.997 15.55 7.447 16 8 16c.554 0 1.003-.451 1.003-1.003v-2.142c0-.554-.449-1.005-1.003-1.005z" opacity=".64"/>
        <path d="M4.15 8c0-.554-.45-1.003-1.002-1.003H1.005C.451 6.997 0 7.447 0 8c0 .554.451 1.003 1.005 1.003h2.143c.551 0 1.002-.449 1.002-1.003z" opacity=".96"/>
        <path d="M14.997 6.997h-2.142c-.554 0-1.005.45-1.005 1.003 0 .554.45 1.003 1.005 1.003h2.142C15.55 9.003 16 8.553 16 8c0-.554-.451-1.003-1.003-1.003z" opacity=".24"/>
        <path d="M4.568 10.43a.999.999 0 0 0-.71.294l-1.515 1.513a1.009 1.009 0 0 0 0 1.42 1 1 0 0 0 .711.294c.267 0 .52-.105.709-.294l1.516-1.516a.999.999 0 0 0 0-1.417 1.004 1.004 0 0 0-.711-.294z" opacity=".88"/>
        <path d="M11.432 5.573c.267 0 .52-.105.71-.294l1.515-1.516c.39-.392.39-1.028 0-1.42a1 1 0 0 0-.711-.294.999.999 0 0 0-.709.294l-1.513 1.516a.989.989 0 0 0-.294.709c0 .269.102.52.294.71.189.19.44.295.708.295z" opacity=".08"/>
        <path d="M12.141 10.724a.999.999 0 0 0-1.417 0 .985.985 0 0 0-.294.708c0 .267.102.52.294.71l1.513 1.515c.19.19.442.294.709.294a1 1 0 0 0 .711-.294c.39-.392.39-1.028 0-1.42l-1.516-1.513z" opacity=".48"/>
        <path d="M3.763 2.343a.999.999 0 0 0-.709-.294 1 1 0 0 0-1.003 1.005c0 .267.103.52.292.709l1.516 1.516a1.004 1.004 0 0 0 1.42-1.42L3.763 2.343z"/>
    </g>
</svg>
