<svg xmlns="http://www.w3.org/2000/svg" width="16" height="16" viewBox="0 0 16 16">
    <g fill="none" fill-rule="evenodd">
        <path d="M0 0h16v16H0z"/>
        <circle cx="8" cy="8" r="7" fill="#1976D2"/>
        <path fill="#FFF" d="M8 16A8 8 0 1 1 8 0a8 8 0 0 1 0 16zm-.967-6.62h1.5l.024-.357c.043-.382.213-.716.51-1.002l.474-.45c.371-.36.63-.687.78-.982.148-.295.222-.609.222-.94 0-.731-.229-1.296-.686-1.697-.457-.4-1.1-.6-1.927-.6-.82 0-1.468.21-1.943.632-.474.422-.716 1.006-.723 1.752h1.699c.008-.312.099-.557.272-.735.174-.178.406-.267.695-.267.61 0 .914.33.914.99 0 .22-.059.427-.176.625-.117.197-.353.453-.706.767-.354.315-.597.634-.73.958-.132.324-.199.76-.199 1.307zm-.17 1.8c0 .258.087.47.261.638.174.168.403.252.689.252.285 0 .514-.084.688-.252a.85.85 0 0 0 .26-.638.857.857 0 0 0-.266-.648.947.947 0 0 0-.682-.255.947.947 0 0 0-.683.255.857.857 0 0 0-.267.648z"/>
    </g>
</svg>
